<svg width="24" height="24" viewBox="0 0 24 24" fill="none" xmlns="http://www.w3.org/2000/svg">
<path fill-rule="evenodd" clip-rule="evenodd" d="M4.806 1.875C2.16 1.875 0.3765 4.407 0.3765 7.038V9.219C0.375 9.321 0.375 9.4635 0.387 9.5895C0.405724 9.83969 0.48949 10.0806 0.63 10.2885C0.843 10.596 1.152 10.7355 1.2465 10.779L1.254 10.782C1.3785 10.839 1.5315 10.896 1.6695 10.947L1.6935 10.9575C1.959 11.0565 2.2845 11.421 2.2845 12.0015C2.2845 12.582 1.959 12.9465 1.6935 13.0455L1.668 13.056C1.5315 13.107 1.3785 13.164 1.254 13.221L1.2465 13.224C1.152 13.2675 0.843 13.407 0.63 13.7145C0.489736 13.9219 0.40598 14.1623 0.387 14.412C0.375 14.538 0.375 14.682 0.375 14.7825V16.962C0.375 19.5945 2.157 22.1265 4.806 22.1265H19.194C21.843 22.1265 23.625 19.5945 23.625 16.962V14.781C23.625 14.679 23.625 14.5365 23.613 14.4105C23.594 14.1608 23.5103 13.9204 23.37 13.713C23.157 13.4055 22.848 13.266 22.7535 13.2225L22.746 13.218C22.6099 13.1585 22.4718 13.1034 22.332 13.053L22.3065 13.044C22.041 12.945 21.7155 12.5805 21.7155 12C21.7155 11.4195 22.041 11.055 22.3065 10.956L22.332 10.9455C22.4685 10.8945 22.6215 10.8375 22.746 10.7805L22.7535 10.7775C22.9993 10.6723 23.2122 10.5029 23.37 10.287C23.5105 10.0791 23.5943 9.83819 23.613 9.588C23.625 9.462 23.625 9.3195 23.625 9.2175V7.0395C23.625 4.407 21.84 1.875 19.194 1.875H4.806ZM2.6265 7.0395C2.6265 5.208 3.8025 4.125 4.806 4.125H13.875V8.637C13.875 8.93537 13.9935 9.22152 14.2045 9.4325C14.4155 9.64347 14.7016 9.762 15 9.762C15.2984 9.762 15.5845 9.64347 15.7955 9.4325C16.0065 9.22152 16.125 8.93537 16.125 8.637V4.125H19.194C20.1975 4.125 21.3735 5.208 21.3735 7.0395V8.9055C20.1915 9.4215 19.4655 10.6725 19.4655 12C19.4655 13.3275 20.1915 14.58 21.375 15.0945V16.9605C21.375 18.792 20.199 19.875 19.194 19.875H16.125V16.137C16.125 15.8386 16.0065 15.5525 15.7955 15.3415C15.5845 15.1305 15.2984 15.012 15 15.012C14.7016 15.012 14.4155 15.1305 14.2045 15.3415C13.9935 15.5525 13.875 15.8386 13.875 16.137V19.875H4.806C3.801 19.875 2.625 18.792 2.625 16.9605V15.0945C3.81 14.5785 4.5345 13.3275 4.5345 12C4.5345 10.6725 3.8085 9.42 2.625 8.9055V7.0395H2.6265Z" fill="white"/>
</svg>
