<svg width="41" height="41" viewBox="0 0 41 41" fill="none" xmlns="http://www.w3.org/2000/svg">
<path d="M0 8C0 3.58172 3.58172 0 8 0H33C37.4183 0 41 3.58172 41 8V33C41 37.4183 37.4183 41 33 41H8C3.58172 41 0 37.4183 0 33V8Z" fill="white" fill-opacity="0.1"/>
<g clip-path="url(#clip0_228_556)">
<path d="M25.9512 17.2645C25.9283 17.2887 25.8985 17.3054 25.8658 17.3123C25.8331 17.3193 25.7991 17.3161 25.7683 17.3032C25.7374 17.2904 25.7112 17.2684 25.6932 17.2403C25.6751 17.2122 25.666 17.1793 25.6671 17.1459C25.6671 17.006 25.6671 16.8521 25.6603 16.7065C25.4949 10.6646 16.4511 10.6646 16.2857 16.7065C16.2818 16.8529 16.2799 16.9994 16.2798 17.1459C16.2798 17.2937 16.1003 17.3687 15.9957 17.2645C15.8931 17.1621 15.7864 17.0577 15.682 16.9583C11.3177 12.8036 4.92701 19.2476 9.05261 23.6318C9.15274 23.738 9.25444 23.8433 9.35771 23.9479C14.3354 28.9593 20.9718 28.96 20.9731 28.96C20.9742 28.96 27.6115 28.9595 32.5894 23.9479C32.6934 23.8437 32.7951 23.7386 32.8945 23.632C37.0201 19.2427 30.6254 12.8036 26.2651 16.9583C26.1581 17.0579 26.0535 17.16 25.9512 17.2645Z" fill="white" stroke="white" stroke-width="1.64381" stroke-miterlimit="10"/>
<path fill-rule="evenodd" clip-rule="evenodd" d="M24.8181 21.8057C24.6781 21.8057 24.6295 22.0094 24.7191 22.1171C24.8832 22.3153 24.9727 22.5647 24.9722 22.8221C24.9722 23.4305 24.4824 23.9237 23.878 23.9237C23.2737 23.9237 22.7839 23.4305 22.7839 22.8221C22.7839 22.7894 22.7418 22.7732 22.7226 22.7996C22.5501 23.0383 22.4335 23.3063 22.3858 23.5875C22.3588 23.7459 22.2308 23.8771 22.0701 23.8771H21.9815C21.7718 23.8771 21.5988 23.7061 21.6296 23.4986C21.842 22.0771 23.2332 21.0461 24.8181 21.0461C26.4028 21.0461 27.7942 22.0771 28.0063 23.4986C28.0374 23.7059 27.8646 23.8771 27.6546 23.8771C27.445 23.8771 27.2789 23.7052 27.2332 23.5004C27.0258 22.5687 26.0644 21.8057 24.8181 21.8057ZM15.1021 22.8221C15.1021 22.7793 15.0468 22.7561 15.0209 22.7903C14.8364 23.0327 14.7104 23.3069 14.6573 23.5963C14.6258 23.7673 14.4879 23.909 14.3142 23.909H14.2489C14.0394 23.909 13.8664 23.738 13.8972 23.5306C14.1094 22.1086 15.5008 21.0783 17.0855 21.0783C18.6704 21.0783 20.062 22.1084 20.274 23.5308C20.305 23.7378 20.132 23.9093 19.9223 23.9093C19.7126 23.9093 19.5465 23.7371 19.5009 23.5324C19.2936 22.6002 18.332 21.8379 17.0857 21.8379C16.9723 21.8379 16.9309 21.9979 17.0067 22.082C17.1898 22.285 17.2908 22.5488 17.2902 22.8221C17.2902 23.4305 16.8004 23.9237 16.1961 23.9237C15.5919 23.9237 15.1021 23.4305 15.1021 22.8221ZM22.7517 25.3587C22.5676 25.2581 22.3386 25.3301 22.1903 25.4786C21.9045 25.7644 21.4714 25.9601 20.9701 25.9601C20.4677 25.9601 20.035 25.7666 19.7499 25.4804C19.6019 25.3319 19.3731 25.2588 19.1888 25.3587C19.0043 25.4586 18.9336 25.6917 19.0659 25.8546C19.4984 26.3879 20.1993 26.7193 20.9701 26.7193C21.7414 26.7193 22.4409 26.384 22.8729 25.8553C23.0055 25.6926 22.9357 25.4593 22.7514 25.3587H22.7517Z" fill="#23272D"/>
</g>
<defs>
<clipPath id="clip0_228_556">
<rect width="27.9" height="18" fill="white" transform="translate(7 11.5)"/>
</clipPath>
</defs>
</svg>
