<svg width="24" height="24" viewBox="0 0 24 24" fill="none" xmlns="http://www.w3.org/2000/svg">
<path fill-rule="evenodd" clip-rule="evenodd" d="M14.091 19.011C13.185 20.823 12.324 21.141 12 21.141C11.676 21.141 10.815 20.823 9.909 19.011C9.1725 17.538 8.634 15.459 8.511 13.056H15.489C15.366 15.459 14.829 17.538 14.091 19.011ZM15.489 10.9455H8.511C8.634 8.541 9.171 6.462 9.909 4.989C10.815 3.177 11.676 2.859 12 2.859C12.324 2.859 13.185 3.177 14.091 4.989C14.8275 6.462 15.366 8.5425 15.489 10.9455ZM17.601 13.0545C17.466 15.927 16.794 18.4875 15.786 20.3235C17.2197 19.6703 18.4605 18.6579 19.3882 17.3844C20.3158 16.1109 20.8989 14.6195 21.081 13.0545H17.601ZM21.081 10.9455H17.601C17.466 8.073 16.794 5.5125 15.786 3.678C17.2195 4.3311 18.4602 5.34325 19.3878 6.61645C20.3154 7.88966 20.8987 9.38079 21.081 10.9455ZM6.399 10.9455C6.534 8.073 7.206 5.5125 8.214 3.678C6.78038 4.33098 5.53967 5.34309 4.61201 6.61632C3.68435 7.88955 3.10119 9.38074 2.919 10.9455H6.399ZM2.919 13.0545C3.10109 14.6195 3.68419 16.1109 4.61185 17.3844C5.5395 18.6579 6.78027 19.6703 8.214 20.3235C7.206 18.4875 6.534 15.9285 6.399 13.0545H2.919ZM23.25 12C23.25 10.5226 22.959 9.05972 22.3936 7.69481C21.8283 6.3299 20.9996 5.08971 19.955 4.04505C18.9103 3.00039 17.6701 2.17172 16.3052 1.60636C14.9403 1.04099 13.4774 0.75 12 0.75C10.5226 0.75 9.05972 1.04099 7.69481 1.60636C6.3299 2.17172 5.08971 3.00039 4.04505 4.04505C3.00039 5.08971 2.17172 6.3299 1.60636 7.69481C1.04099 9.05972 0.75 10.5226 0.75 12C0.75 14.9837 1.93526 17.8452 4.04505 19.955C6.15483 22.0647 9.01631 23.25 12 23.25C14.9837 23.25 17.8452 22.0647 19.955 19.955C22.0647 17.8452 23.25 14.9837 23.25 12Z" fill="white"/>
</svg>
