<svg width="184" height="43" viewBox="0 0 184 43" fill="none" xmlns="http://www.w3.org/2000/svg">
<path d="M16.7331 41.5699C12.5638 41.5699 8.42845 40.0826 4.89672 37.2194L4.27611 36.7118L10.6478 29.4456C10.7809 29.2939 10.9743 29.201 11.174 29.184C11.3752 29.1747 11.5764 29.2428 11.7265 29.3775C11.8782 29.5137 11.9695 29.7071 11.9865 29.9099C11.9942 30.1126 11.9277 30.3153 11.7946 30.4686L6.49544 36.509C10.948 39.821 16.323 40.861 21.3715 39.3474L27.5404 37.4887L33.7109 39.3474C38.75 40.861 44.125 39.8287 48.5776 36.5168L43.2042 30.4345C43.0695 30.2813 43.003 30.0786 43.0107 29.8758C43.02 29.6731 43.1113 29.4796 43.2614 29.3434C43.4131 29.2088 43.6143 29.1407 43.8139 29.15C44.0151 29.1577 44.2086 29.2506 44.3417 29.4038L50.7876 36.704L50.1608 37.2101C45.1882 41.2325 39.0348 42.5418 33.2667 40.81L27.5326 39.0859L21.7986 40.81C20.1565 41.3083 18.4495 41.5528 16.7331 41.5528" fill="white"/>
<path d="M16.7331 41.5699C12.5638 41.5699 8.42845 40.0826 4.89672 37.2194L4.27611 36.7118L10.6478 29.4456C10.7809 29.2939 10.9743 29.201 11.174 29.184C11.3752 29.1747 11.5764 29.2428 11.7265 29.3775C11.8782 29.5137 11.9695 29.7071 11.9865 29.9099C11.9942 30.1126 11.9277 30.3153 11.7946 30.4686L6.49544 36.509C10.948 39.821 16.323 40.861 21.3715 39.3474L27.5404 37.4887L33.7109 39.3474C38.75 40.861 44.125 39.8287 48.5776 36.5168L43.2042 30.4345C43.0695 30.2813 43.003 30.0786 43.0107 29.8758C43.02 29.6731 43.1113 29.4796 43.2614 29.3434C43.4131 29.2088 43.6143 29.1407 43.8139 29.15C44.0151 29.1577 44.2086 29.2506 44.3417 29.4038L50.7876 36.704L50.1608 37.2101C45.1882 41.2325 39.0348 42.5418 33.2667 40.81L27.5326 39.0859L21.7986 40.81C20.1565 41.3083 18.4495 41.5528 16.7331 41.5528" stroke="white" stroke-width="1.31943" stroke-linejoin="round"/>
<path d="M27.5326 38.3414L14.9749 31.0334C13.5851 30.012 12.4554 28.6764 11.6846 27.121C10.9154 25.5671 10.5208 23.8523 10.5471 22.1205L10.6554 14.6345L15.6776 16.2982C15.7782 16.3323 15.8617 16.3741 15.9469 16.4422C16.0211 16.5087 16.0892 16.5861 16.131 16.679C16.1806 16.7718 16.2053 16.8647 16.2146 16.9653C16.2146 17.0674 16.2146 17.168 16.1806 17.2702C16.1465 17.363 16.097 17.4559 16.0304 17.5317C15.9623 17.6076 15.8788 17.6757 15.7952 17.7174C15.7039 17.7608 15.6033 17.7855 15.5027 17.7933C15.4021 17.7933 15.3015 17.7933 15.2009 17.7515L12.1458 16.7378L12.07 22.1282C12.053 23.6063 12.3795 25.0765 13.0419 26.4029C13.695 27.7292 14.6577 28.8791 15.8463 29.7582L27.5403 36.5678L39.3783 29.7582C40.5669 28.8868 41.5373 27.7292 42.1904 26.4029C42.8512 25.0765 43.1778 23.6063 43.1623 22.1205L43.0865 16.7285L39.6042 17.8536C39.4108 17.9124 39.2019 17.8954 39.0254 17.8026C38.8505 17.7097 38.7082 17.5487 38.6493 17.3537C38.5905 17.1603 38.6076 16.9483 38.6989 16.7718C38.7917 16.5938 38.9511 16.4499 39.143 16.3911L44.5768 14.6423L44.6774 22.1035C44.7022 23.843 44.3091 25.5671 43.5384 27.121C42.7599 28.6764 41.6301 30.0197 40.231 31.0334L40.1645 31.0752L27.5326 38.3414Z" fill="white" stroke="white" stroke-width="1.31943" stroke-linecap="round" stroke-linejoin="round"/>
<path d="M27.5666 26.1242L16.976 20.0156L27.5666 35.1238L37.9219 20.0156L27.5666 26.1242Z" fill="white"/>
<path d="M27.5651 0L17.3104 17.2702L27.5481 23.5398L37.9297 17.3538L27.5651 0Z" fill="white"/>
<path d="M6.3947 31.422C6.21982 31.422 6.05113 31.3632 5.91803 31.2533C5.78338 31.1434 5.69207 30.9917 5.65028 30.823C5.1473 28.5836 3.71572 26.1847 1.5227 23.9035L0.66066 23.0152L1.83223 22.636C4.42764 21.808 6.68876 21.6888 8.75642 22.2893C8.94833 22.3481 9.11547 22.475 9.20833 22.653C9.30893 22.8294 9.32441 23.0415 9.27488 23.2349C9.22381 23.4299 9.09071 23.5986 8.91428 23.6915C8.73939 23.7936 8.53046 23.8106 8.337 23.7596C6.8559 23.3278 5.28968 23.3278 3.47274 23.7596C5.38254 25.965 6.63768 28.2632 7.14067 30.4686C7.16543 30.577 7.16543 30.6961 7.14067 30.806C7.11436 30.9159 7.06484 31.0258 6.989 31.1094C6.91471 31.2022 6.82959 31.2703 6.72126 31.3214C6.62066 31.3725 6.50459 31.3972 6.3947 31.3972" fill="white"/>
<path d="M6.3947 31.422C6.21982 31.422 6.05113 31.3632 5.91803 31.2533C5.78338 31.1434 5.69207 30.9917 5.65028 30.823C5.1473 28.5836 3.71572 26.1847 1.5227 23.9035L0.66066 23.0152L1.83223 22.636C4.42764 21.808 6.68876 21.6888 8.75642 22.2893C8.94833 22.3481 9.11547 22.475 9.20833 22.653C9.30893 22.8294 9.32441 23.0415 9.27488 23.2349C9.22381 23.4299 9.09071 23.5986 8.91428 23.6915C8.73939 23.7936 8.53046 23.8106 8.33701 23.7596C6.8559 23.3278 5.28968 23.3278 3.47274 23.7596C5.38254 25.965 6.63768 28.2632 7.14067 30.4686C7.16543 30.577 7.16543 30.6961 7.14067 30.806C7.11436 30.9159 7.06484 31.0258 6.989 31.1094C6.91471 31.2022 6.82959 31.2703 6.72126 31.3214C6.62066 31.3725 6.50459 31.3972 6.3947 31.3972" stroke="white" stroke-width="1.31943" stroke-linecap="round" stroke-linejoin="round"/>
<path d="M48.7447 31.4219C48.6286 31.4219 48.5187 31.3971 48.4181 31.346C48.3175 31.295 48.2262 31.2191 48.1504 31.1355C48.0761 31.0504 48.025 30.9405 48.0003 30.8307C47.9755 30.7208 47.9755 30.6032 48.0003 30.4933C48.5017 28.2879 49.7584 25.9896 51.6667 23.7842C49.8497 23.3524 48.285 23.3524 46.8024 23.7842C46.7111 23.809 46.6105 23.8183 46.5099 23.809C46.4093 23.8012 46.318 23.7672 46.2251 23.7161C46.1415 23.6666 46.058 23.5985 45.9992 23.5227C45.9403 23.4468 45.8908 23.3524 45.8661 23.2518C45.8397 23.159 45.832 23.0568 45.8397 22.9562C45.849 22.8541 45.8815 22.7612 45.9326 22.6684C45.9821 22.5848 46.0502 22.4997 46.1245 22.4408C46.2003 22.382 46.2917 22.331 46.3845 22.3062C48.4522 21.7057 50.721 21.8156 53.3072 22.6513L54.4803 23.032L53.6167 23.9189C51.4237 26.2001 49.9921 28.5912 49.4907 30.8384C49.4489 31.0086 49.356 31.1603 49.2229 31.2702C49.0883 31.3801 48.9211 31.4389 48.7447 31.4389" fill="white"/>
<path d="M48.7447 31.4219C48.6286 31.4219 48.5187 31.3971 48.4181 31.346C48.3175 31.295 48.2262 31.2191 48.1504 31.1355C48.0761 31.0504 48.025 30.9405 48.0003 30.8307C47.9755 30.7208 47.9755 30.6032 48.0003 30.4933C48.5017 28.2879 49.7584 25.9896 51.6667 23.7842C49.8497 23.3524 48.285 23.3524 46.8024 23.7842C46.7111 23.809 46.6105 23.8183 46.5099 23.809C46.4093 23.8012 46.318 23.7672 46.2251 23.7161C46.1415 23.6666 46.058 23.5985 45.9992 23.5227C45.9403 23.4468 45.8908 23.3524 45.8661 23.2518C45.8397 23.159 45.832 23.0568 45.8397 22.9562C45.849 22.8541 45.8815 22.7612 45.9326 22.6684C45.9821 22.5848 46.0502 22.4997 46.1245 22.4408C46.2003 22.382 46.2917 22.331 46.3845 22.3062C48.4522 21.7057 50.721 21.8156 53.3072 22.6513L54.4803 23.032L53.6167 23.9189C51.4237 26.2001 49.9921 28.5912 49.4907 30.8384C49.4489 31.0086 49.356 31.1603 49.2229 31.2702C49.0883 31.3801 48.9211 31.4389 48.7447 31.4389" stroke="white" stroke-width="1.31943" stroke-miterlimit="10"/>
<path d="M15.4191 14.7352C15.3108 14.7352 15.2102 14.7104 15.1096 14.6671C15.009 14.6253 14.9254 14.5572 14.8496 14.4814C14.7753 14.3978 14.7242 14.3049 14.6917 14.2028C14.6577 14.1022 14.6499 13.9923 14.6577 13.8824L15.2597 8.41457L19.053 11.0255C19.2109 11.1446 19.3208 11.3211 19.3625 11.5161C19.395 11.7111 19.3625 11.9138 19.2449 12.0825C19.1366 12.2512 18.9602 12.3611 18.7682 12.4029C18.5748 12.4462 18.3659 12.4029 18.2064 12.293L16.4994 11.1183L16.1728 14.0511C16.1558 14.2368 16.0645 14.4148 15.9221 14.5402C15.7797 14.6671 15.6033 14.7352 15.4114 14.7352" fill="white"/>
<path d="M15.4191 14.7352C15.3108 14.7352 15.2102 14.7104 15.1096 14.6671C15.009 14.6253 14.9254 14.5572 14.8496 14.4814C14.7753 14.3978 14.7242 14.3049 14.6917 14.2028C14.6577 14.1022 14.6499 13.9923 14.6577 13.8824L15.2597 8.41457L19.053 11.0255C19.2109 11.1446 19.3208 11.3211 19.3625 11.5161C19.395 11.7111 19.3625 11.9138 19.2449 12.0825C19.1366 12.2512 18.9602 12.3611 18.7682 12.4029C18.5748 12.4462 18.3659 12.4029 18.2064 12.293L16.4994 11.1183L16.1728 14.0511C16.1558 14.2368 16.0645 14.4148 15.9221 14.5402C15.7797 14.6671 15.6033 14.7352 15.4114 14.7352" stroke="white" stroke-width="1.31943" stroke-linejoin="round"/>
<path d="M39.4695 14.7352C39.2853 14.7352 39.1104 14.6671 38.9681 14.5402C38.8257 14.4148 38.7421 14.2446 38.7173 14.0589L38.3397 11.1028L36.6156 12.2852C36.4485 12.4029 36.2473 12.4462 36.0461 12.4029C35.8449 12.3688 35.67 12.2512 35.5601 12.0825C35.4441 11.9138 35.4023 11.7111 35.4441 11.5083C35.4858 11.3056 35.5942 11.1276 35.7613 11.0177L39.5376 8.41457L40.2232 13.8654C40.2402 13.9753 40.2232 14.0852 40.1984 14.1858C40.1644 14.2879 40.1149 14.3885 40.039 14.4643C39.9647 14.5495 39.8796 14.6083 39.7806 14.6593C39.68 14.7011 39.5701 14.7274 39.4695 14.7274" fill="white"/>
<path d="M39.4695 14.7352C39.2853 14.7352 39.1104 14.6671 38.9681 14.5402C38.8257 14.4148 38.7421 14.2446 38.7173 14.0589L38.3397 11.1028L36.6156 12.2852C36.4485 12.4029 36.2473 12.4462 36.0461 12.4029C35.8449 12.3688 35.67 12.2512 35.5601 12.0825C35.4441 11.9138 35.4023 11.7111 35.4441 11.5083C35.4858 11.3056 35.5942 11.1276 35.7613 11.0177L39.5376 8.41457L40.2232 13.8654C40.2402 13.9753 40.2232 14.0852 40.1984 14.1858C40.1644 14.2879 40.1149 14.3885 40.039 14.4643C39.9647 14.5495 39.8796 14.6083 39.7806 14.6593C39.68 14.7011 39.5701 14.7274 39.4695 14.7274" stroke="white" stroke-width="1.31943" stroke-linecap="round" stroke-linejoin="round"/>
<path d="M116.218 11.5672V21.0806H104.992V11.5672H67.2623V34.1521H84.4985V30.6033H71.8588V24.6294H84.5078V21.0806H71.8588V15.116H90.183V34.1521H94.7702V15.116H100.405V34.1521H105V24.6294H116.227V34.1428H120.814V11.5672H116.227H116.218Z" fill="white"/>
<path d="M123.844 34.152H127.478V11.4913H123.844V34.152Z" fill="white"/>
<path d="M130.684 18.8069H134.208V20.2277C135.438 19.0019 136.82 18.3844 138.36 18.3844C140.127 18.3844 141.508 18.9509 142.495 20.0745C143.349 21.0294 143.777 22.5925 143.777 24.7561V34.1596H140.253V25.5918C140.253 24.0798 140.042 23.032 139.624 22.4579C139.214 21.8666 138.477 21.5788 137.407 21.5788C136.243 21.5788 135.413 21.9672 134.919 22.7442C134.443 23.5133 134.2 24.849 134.2 26.7588V34.1596H130.676V18.8069H130.684Z" fill="white"/>
<path d="M148.85 26.4292C148.85 27.8995 149.243 29.0989 150.021 30.0198C150.825 30.9576 151.829 31.4219 153.052 31.4219C154.35 31.4219 155.404 30.9747 156.207 30.0708C157.012 29.133 157.413 27.9506 157.413 26.5143C157.413 25.0781 157.012 23.8864 156.207 22.9563C155.404 22.0447 154.366 21.5882 153.086 21.5882C151.88 21.5882 150.866 22.0525 150.055 22.9733C149.251 23.9112 148.85 25.0611 148.85 26.437V26.4292ZM157.187 11.4913H160.713V34.152H157.187V32.5471C155.806 33.9152 154.24 34.5915 152.491 34.5915C150.407 34.5915 148.683 33.8223 147.31 32.2933C145.945 30.7301 145.267 28.7786 145.267 26.4292C145.267 24.0799 145.945 22.2304 147.31 20.6921C148.666 19.146 150.365 18.3768 152.416 18.3768C154.198 18.3768 155.789 19.1119 157.196 20.5822V11.4913H157.187Z" fill="white"/>
<path d="M163.223 34.152H166.731V18.8071H163.223V34.152ZM162.697 13.7803C162.697 13.1643 162.922 12.6227 163.365 12.1754C163.574 11.9556 163.826 11.7869 164.102 11.6678C164.379 11.5501 164.671 11.4913 164.973 11.4991C165.609 11.4991 166.145 11.7266 166.597 12.1754C167.041 12.6149 167.267 13.155 167.267 13.7973C167.267 14.4396 167.041 14.989 166.597 15.4363C166.388 15.6561 166.145 15.8247 165.86 15.9439C165.584 16.0615 165.283 16.1203 164.99 16.1126C164.688 16.1126 164.387 16.0615 164.111 15.9439C163.834 15.8247 163.574 15.6561 163.365 15.4363C162.913 14.989 162.697 14.4319 162.697 13.7803Z" fill="white"/>
<path d="M172.139 26.4293C172.139 27.8995 172.532 29.099 173.31 30.0198C174.114 30.9577 175.118 31.422 176.341 31.422C177.639 31.422 178.693 30.9747 179.489 30.0709C180.292 29.133 180.694 27.9491 180.694 26.5129C180.694 25.0766 180.292 23.8865 179.489 22.9564C178.685 22.0432 177.647 21.5882 176.365 21.5882C175.16 21.5882 174.148 22.0525 173.335 22.9734C172.532 23.9113 172.13 25.0689 172.13 26.437L172.139 26.4293ZM180.476 18.8071H184V34.1521H180.476V32.5456C179.027 33.9153 177.47 34.59 175.813 34.59C173.713 34.59 171.972 33.8224 170.599 32.2933C169.234 30.7302 168.556 28.7771 168.556 26.4293C168.556 24.0799 169.234 22.2135 170.599 20.6751C171.962 19.1368 173.671 18.3769 175.722 18.3769C177.487 18.3769 179.078 19.112 180.485 20.5823V18.7994L180.476 18.8071Z" fill="white"/>
</svg>
