<svg width="24" height="24" viewBox="0 0 24 24" fill="none" xmlns="http://www.w3.org/2000/svg">
<path fill-rule="evenodd" clip-rule="evenodd" d="M12 23.25C12.2984 23.25 12.5845 23.1315 12.7955 22.9205C13.0065 22.7095 13.125 22.4234 13.125 22.125V15.75H13.1865C14.4945 15.75 15.6 15.75 16.425 15.63C17.25 15.51 18.2175 15.2145 18.675 14.238C19.1325 13.263 18.7395 12.3285 18.303 11.619C17.868 10.908 17.16 10.059 16.323 9.054L16.263 8.9835L15.63 8.223L15.5805 8.163C14.982 7.446 14.4585 6.8175 13.9725 6.378C13.4505 5.907 12.819 5.511 12 5.511C11.181 5.511 10.551 5.907 10.0275 6.378C9.5415 6.8175 9.018 7.446 8.421 8.163L8.37 8.223L7.737 8.9835L7.677 9.054C6.8415 10.059 6.132 10.908 5.697 11.619C5.262 12.3285 4.869 13.263 5.325 14.238C5.7825 15.2145 6.75 15.51 7.575 15.63C8.4 15.75 9.507 15.75 10.815 15.75H10.875V22.125C10.875 22.746 11.379 23.25 12 23.25ZM7.3815 13.275C7.4505 13.308 7.599 13.3605 7.899 13.404C8.5425 13.497 9.4815 13.5 10.905 13.5H13.095C14.52 13.5 15.459 13.497 16.101 13.404C16.401 13.359 16.551 13.308 16.6185 13.275C16.5643 13.1047 16.486 12.9431 16.386 12.795C16.0455 12.2415 15.447 11.5185 14.535 10.425L13.902 9.6645C13.239 8.8695 12.8175 8.367 12.465 8.049C12.1455 7.7595 12.03 7.761 12.003 7.761H11.9985C11.9685 7.761 11.8545 7.761 11.5365 8.049C11.184 8.367 10.7625 8.868 10.0995 9.6645L9.465 10.425C8.553 11.5185 7.9545 12.2415 7.614 12.795C7.455 13.0545 7.3995 13.2015 7.3815 13.275ZM21 3C21.2984 3 21.5845 2.88147 21.7955 2.6705C22.0065 2.45952 22.125 2.17337 22.125 1.875C22.125 1.57663 22.0065 1.29048 21.7955 1.0795C21.5845 0.868526 21.2984 0.75 21 0.75H3C2.70163 0.75 2.41548 0.868526 2.2045 1.0795C1.99353 1.29048 1.875 1.57663 1.875 1.875C1.875 2.17337 1.99353 2.45952 2.2045 2.6705C2.41548 2.88147 2.70163 3 3 3H21Z" fill="white"/>
</svg>
